<svg version="1.1" xmlns="http://www.w3.org/2000/svg" xmlns:xlink="http://www.w3.org/1999/xlink" viewBox="0 0 172 172"><g transform="translate(4.73,4.73) scale(0.945,0.945)"><g fill="none" fill-rule="nonzero" stroke="none" stroke-width="none" stroke-linecap="butt" stroke-linejoin="none" stroke-miterlimit="10" stroke-dasharray="" stroke-dashoffset="0" font-family="none" font-weight="none" font-size="none" text-anchor="none" style="mix-blend-mode: normal"><g stroke="#cccccc" stroke-width="10" stroke-linejoin="round"><path d="M85.43563,64.5l3.25187,6.18125c0.75702,1.38387 1.89488,2.52173 3.27875,3.27875l6.18125,3.38625l-6.04687,3.27875c-1.45251,0.77203 -2.64109,1.96061 -3.41313,3.41312l-3.38625,6.18125l-3.38625,-6.18125c-0.70724,-1.41874 -1.80822,-2.6037 -3.17125,-3.41312l-6.18125,-3.25187l6.18125,-3.38625c1.38387,-0.75702 2.52173,-1.89488 3.27875,-3.27875zM45.12312,29.5625l5.375,10.07813c1.237,2.27165 3.10335,4.138 5.375,5.375l10.07813,5.375l-10.07813,5.375c-2.27165,1.237 -4.138,3.10335 -5.375,5.375l-5.375,10.07813l-5.375,-10.07812c-1.237,-2.27165 -3.10335,-4.138 -5.375,-5.375l-10.18562,-5.2675l10.07813,-5.375c2.27165,-1.237 4.138,-3.10335 5.375,-5.375z" fill="#f9e3ae"></path><path d="M66.03188,50.39063l-10.07812,5.375c-2.28689,1.21651 -4.15849,3.08811 -5.375,5.375l-4.89125,9.1375l-0.56438,1.02125l-5.375,-10.07813c-1.22822,-2.2782 -3.0968,-4.14678 -5.375,-5.375l-10.18562,-5.45562l10.07813,-5.375c2.27165,-1.237 4.138,-3.10335 5.375,-5.375l5.375,-10.07812l0.56438,1.02125l4.945,9.05687c1.22822,2.2782 3.0968,4.14678 5.375,5.375z" fill="#f9e3ae"></path><path d="M45.6875,30.47625v39.80188l-0.56438,1.02125l-5.375,-10.07813c-1.22822,-2.2782 -3.0968,-4.14678 -5.375,-5.375l-10.18562,-5.45562l10.07813,-5.375c2.27165,-1.237 4.138,-3.10335 5.375,-5.375l5.375,-10.07812zM86,69.875v16.125l-8.0625,-5.375v-5.375l2.6875,-5.375z" fill="#faefde"></path><path d="M158.32062,89.3325c-2.53195,31.59425 -24.5895,58.21487 -55.16278,66.57437c-30.57329,8.35951 -63.10702,-3.33448 -81.36222,-29.245c-0.66648,-0.94312 -0.65593,-2.20659 0.02621,-3.13845c0.68214,-0.93186 1.88335,-1.32374 2.98379,-0.97343c28.02188,9.24948 58.86385,1.2668 78.87967,-20.41604c20.01582,-21.68284 25.51097,-53.06362 14.05408,-80.25771c-0.4457,-1.07251 -0.15201,-2.30998 0.72808,-3.06783c0.88009,-0.75786 2.14745,-0.86462 3.14192,-0.26467c24.76127,14.64002 39.01004,42.11531 36.71125,70.78875z" fill="#f9e3ae"></path><path d="M158.32062,89.3325c-1.87188,23.352 -14.51279,44.50009 -34.19431,57.20669c-19.68152,12.70659 -44.1582,15.522 -66.21069,7.61581c-1.89213,-0.65673 -3.39458,-2.1203 -4.10067,-3.99456c-0.70609,-1.87426 -0.5428,-3.96538 0.44567,-5.70731c1.63335,-2.78828 5.02024,-4.01885 8.0625,-2.92938c6.73542,2.40569 13.83726,3.62418 20.98937,3.60125c1.26313,0 2.52625,0 3.78937,0c20.17299,-1.22263 38.47426,-12.22975 49.00973,-29.47643c10.53547,-17.24668 11.97441,-38.55449 3.85339,-57.06107c-1.41385,-3.34023 0.10292,-7.19784 3.41313,-8.68062c1.6134,-0.74536 3.45768,-0.81547 5.12301,-0.19476c1.66534,0.62072 3.01379,1.88085 3.74574,3.50038c4.96215,11.35791 7.04826,23.76381 6.07375,36.12z" fill="#f6d397"></path><path d="M83.3125,139.75v5.375c0,1.48427 -1.20323,2.6875 -2.6875,2.6875c-1.48427,0 -2.6875,-1.20323 -2.6875,-2.6875v-5.375c0,-1.48427 1.20323,-2.6875 2.6875,-2.6875c1.48427,0 2.6875,1.20323 2.6875,2.6875zM98.17438,142.4375c0.39333,1.43974 -0.45495,2.92573 -1.89469,3.31906c-1.43974,0.39333 -2.92573,-0.45495 -3.31906,-1.89469l-1.3975,-5.18687c-0.32865,-1.41063 0.51971,-2.82795 1.91824,-3.20476c1.39854,-0.37681 2.84411,0.42246 3.26863,1.80726zM111.85375,136.04125c0.66758,1.27616 0.21049,2.85172 -1.03641,3.57248c-1.2469,0.72075 -2.84032,0.33045 -3.61297,-0.88498l-2.6875,-4.64937c-0.66758,-1.27616 -0.21049,-2.85172 1.03641,-3.57248c1.2469,-0.72075 2.84032,-0.33045 3.61297,0.88498zM69.66,138.64813l-1.3975,5.18687c-0.22285,0.95651 -0.94972,1.71529 -1.89578,1.97901c-0.94606,0.26371 -1.96064,-0.00964 -2.64616,-0.71295c-0.68552,-0.70331 -0.9328,-1.72455 -0.64494,-2.66355l1.3975,-5.16c0.38088,-1.43049 1.84684,-2.28364 3.27875,-1.90813c1.43049,0.38088 2.28364,1.84684 1.90812,3.27875z" fill="#8d6c9f"></path><path d="M159.25516,101.55746c-8.03184,33.35779 -36.93413,57.53913 -71.18579,59.55817c-1.59458,0.08958 -3.18021,0.13438 -4.75688,0.13438c-25.36909,0.06948 -49.16751,-12.27639 -63.72062,-33.05625c-1.32961,-1.90346 -1.28669,-4.44551 0.10642,-6.30299c1.39311,-1.85748 3.82147,-2.61046 6.02108,-1.86701c8.16532,2.70229 16.74824,3.92192 25.34313,3.60125c37.95837,-1.48594 68.38906,-31.91663 69.875,-69.875c0.40965,-10.60274 -1.52664,-21.16516 -5.67063,-30.93312c-0.89697,-2.14093 -0.31824,-4.61578 1.43508,-6.13696c1.75332,-1.52117 4.28507,-1.74496 6.27804,-0.55492c29.57884,17.38805 44.307,52.07467 36.27516,85.43246zM120.23875,20.855c4.43692,10.47397 6.5107,21.79716 6.07375,33.16375c-0.9169,24.48647 -13.29623,47.11606 -33.42139,61.09481c-20.12517,13.97875 -45.65271,17.67889 -68.91861,9.98956c17.59278,25.0151 48.98083,36.31488 78.48125,28.25344c29.50041,-8.06144 50.7799,-33.75343 53.20625,-64.23907c2.27903,-27.6678 -11.48681,-54.1968 -35.42125,-68.2625z" fill="#8d6c9f"></path><path d="M138.91688,62.91438c-0.51207,-1.39521 0.20385,-2.94137 1.59906,-3.45344c1.39521,-0.51207 2.94137,0.20385 3.45344,1.59906c0.77081,2.11271 1.42574,4.26591 1.96187,6.45c0.35503,1.43956 -0.52285,2.89468 -1.96187,3.25187h-0.645c-1.265,0.03686 -2.38431,-0.81382 -2.6875,-2.0425c-0.46779,-1.96472 -1.04197,-3.90257 -1.72,-5.805zM142.19562,79.98c-0.05937,-1.48427 1.09573,-2.73563 2.58,-2.795c1.48427,-0.05937 2.73563,1.09573 2.795,2.58c0.47163,11.23434 -2.13008,22.38453 -7.525,32.25c-0.74213,1.29873 -2.39658,1.74995 -3.69531,1.00781c-1.29873,-0.74213 -1.74995,-2.39658 -1.00781,-3.69531c4.9434,-9.04349 7.32237,-19.2656 6.88,-29.5625zM21.51108,50.37719c0,-0.97768 0.53095,-1.87824 1.38642,-2.35156l10.07813,-5.375c1.80367,-0.98648 3.28664,-2.46946 4.27313,-4.27312l5.375,-10.07812c0.47332,-0.85547 1.37388,-1.38642 2.35156,-1.38642c0.97768,0 1.87824,0.53095 2.35156,1.38642l5.375,10.07813c0.98648,1.80367 2.46946,3.28664 4.27313,4.27313l10.07812,5.375c0.85547,0.47332 1.38642,1.37388 1.38642,2.35156c0,0.97768 -0.53095,1.87824 -1.38642,2.35156l-10.07812,5.375c-1.80367,0.98648 -3.28664,2.46946 -4.27312,4.27313l-5.375,10.07812c-0.47332,0.85547 -1.37388,1.38642 -2.35156,1.38642c-0.97768,0 -1.87824,-0.53095 -2.35156,-1.38642l-5.375,-10.07812c-0.98648,-1.80367 -2.46946,-3.28664 -4.27312,-4.27312l-10.07813,-5.375c-0.85547,-0.47332 -1.38642,-1.37388 -1.38642,-2.35156zM29.80438,50.39063l5.75125,3.14438c2.69868,1.47815 4.9181,3.69757 6.39625,6.39625l3.27875,5.75125l3.14438,-5.75125c1.48539,-2.7024 3.71452,-4.9222 6.42312,-6.39625l5.75125,-3.14438l-5.75125,-3.14438c-2.71232,-1.48129 -4.94184,-3.71081 -6.42312,-6.42312l-3.25188,-5.88562l-3.17125,5.99312c-1.47405,2.7086 -3.69385,4.93773 -6.39625,6.42313zM71.29937,79.68438c-0.85547,-0.47332 -1.38642,-1.37388 -1.38642,-2.35156c0,-0.97768 0.53095,-1.87824 1.38642,-2.35156l6.18125,-3.38625c0.92864,-0.51081 1.69294,-1.27511 2.20375,-2.20375l3.38625,-6.18125c0.47332,-0.85547 1.37388,-1.38642 2.35156,-1.38642c0.97768,0 1.87824,0.53095 2.35156,1.38642l3.38625,6.18125c0.50961,0.92955 1.2742,1.69414 2.20375,2.20375l6.18125,3.38625c0.85547,0.47332 1.38642,1.37388 1.38642,2.35156c0,0.97768 -0.53095,1.87824 -1.38642,2.35156l-6.18125,3.38625c-0.93046,0.5084 -1.69535,1.27329 -2.20375,2.20375l-3.38625,6.20812c-0.47332,0.85547 -1.37388,1.38642 -2.35156,1.38642c-0.97768,0 -1.87824,-0.53095 -2.35156,-1.38642l-3.38625,-6.18125c-0.51807,-0.93235 -1.29206,-1.69702 -2.23063,-2.20375l-6.18125,-3.38625zM78.1525,77.34625l1.88125,1.02125c1.8382,1.00443 3.34932,2.51555 4.35375,4.35375l1.02125,1.88125l1.02125,-1.88125c1.0032,-1.83911 2.51464,-3.35055 4.35375,-4.35375l1.88125,-1.02125l-1.88125,-1.02125c-1.83911,-1.0032 -3.35055,-2.51464 -4.35375,-4.35375l-1.02125,-1.88125l-1.02125,1.88125c-1.0032,1.83911 -2.51464,3.35055 -4.35375,4.35375z" fill="#8d6c9f"></path></g><path d="M0,172v-172h172v172z" fill="none" stroke="none" stroke-width="1" stroke-linejoin="miter"></path><g stroke="none" stroke-width="1" stroke-linejoin="miter"><path d="M85.43563,64.5l3.25187,6.18125c0.75702,1.38387 1.89488,2.52173 3.27875,3.27875l6.18125,3.38625l-6.04687,3.27875c-1.45251,0.77203 -2.64109,1.96061 -3.41313,3.41312l-3.38625,6.18125l-3.38625,-6.18125c-0.70724,-1.41874 -1.80822,-2.6037 -3.17125,-3.41312l-6.18125,-3.25187l6.18125,-3.38625c1.38387,-0.75702 2.52173,-1.89488 3.27875,-3.27875zM45.12312,29.5625l5.375,10.07813c1.237,2.27165 3.10335,4.138 5.375,5.375l10.07813,5.375l-10.07813,5.375c-2.27165,1.237 -4.138,3.10335 -5.375,5.375l-5.375,10.07813l-5.375,-10.07812c-1.237,-2.27165 -3.10335,-4.138 -5.375,-5.375l-10.18562,-5.2675l10.07813,-5.375c2.27165,-1.237 4.138,-3.10335 5.375,-5.375z" fill="#f9e3ae"></path><path d="M66.03188,50.39063l-10.07812,5.375c-2.28689,1.21651 -4.15849,3.08811 -5.375,5.375l-4.89125,9.1375l-0.56438,1.02125l-5.375,-10.07813c-1.22822,-2.2782 -3.0968,-4.14678 -5.375,-5.375l-10.18562,-5.45562l10.07813,-5.375c2.27165,-1.237 4.138,-3.10335 5.375,-5.375l5.375,-10.07812l0.56438,1.02125l4.945,9.05687c1.22822,2.2782 3.0968,4.14678 5.375,5.375z" fill="#f9e3ae"></path><path d="M45.6875,30.47625v39.80188l-0.56438,1.02125l-5.375,-10.07813c-1.22822,-2.2782 -3.0968,-4.14678 -5.375,-5.375l-10.18562,-5.45562l10.07813,-5.375c2.27165,-1.237 4.138,-3.10335 5.375,-5.375l5.375,-10.07812zM86,69.875v16.125l-8.0625,-5.375v-5.375l2.6875,-5.375z" fill="#faefde"></path><path d="M158.32062,89.3325c-2.53195,31.59425 -24.5895,58.21487 -55.16278,66.57437c-30.57329,8.35951 -63.10702,-3.33448 -81.36222,-29.245c-0.66648,-0.94312 -0.65593,-2.20659 0.02621,-3.13845c0.68214,-0.93186 1.88335,-1.32374 2.98379,-0.97343c28.02188,9.24948 58.86385,1.2668 78.87967,-20.41604c20.01582,-21.68284 25.51097,-53.06362 14.05408,-80.25771c-0.4457,-1.07251 -0.15201,-2.30998 0.72808,-3.06783c0.88009,-0.75786 2.14745,-0.86462 3.14192,-0.26467c24.76127,14.64002 39.01004,42.11531 36.71125,70.78875z" fill="#f9e3ae"></path><path d="M158.32062,89.3325c-1.87188,23.352 -14.51279,44.50009 -34.19431,57.20669c-19.68152,12.70659 -44.1582,15.522 -66.21069,7.61581c-1.89213,-0.65673 -3.39458,-2.1203 -4.10067,-3.99456c-0.70609,-1.87426 -0.5428,-3.96538 0.44567,-5.70731v0c1.63335,-2.78828 5.02024,-4.01885 8.0625,-2.92938c6.73542,2.40569 13.83726,3.62418 20.98937,3.60125c1.26313,0 2.52625,0 3.78937,0c20.17299,-1.22263 38.47426,-12.22975 49.00973,-29.47643c10.53547,-17.24668 11.97441,-38.55449 3.85339,-57.06107c-1.41385,-3.34023 0.10292,-7.19784 3.41313,-8.68062v0c1.6134,-0.74536 3.45768,-0.81547 5.12301,-0.19476c1.66534,0.62072 3.01379,1.88085 3.74574,3.50038c4.96215,11.35791 7.04826,23.76381 6.07375,36.12z" fill="#f6d397"></path><path d="M80.625,137.0625c-1.48427,0 -2.6875,1.20323 -2.6875,2.6875v5.375c0,1.48427 1.20323,2.6875 2.6875,2.6875c1.48427,0 2.6875,-1.20323 2.6875,-2.6875v-5.375c0,-1.48427 -1.20323,-2.6875 -2.6875,-2.6875zM96.75,137.2775c-0.42453,-1.3848 -1.8701,-2.18407 -3.26863,-1.80726c-1.39854,0.37681 -2.24689,1.79413 -1.91824,3.20476l1.3975,5.18687c0.39333,1.43974 1.87933,2.28802 3.31906,1.89469c1.43974,-0.39333 2.28802,-1.87933 1.89469,-3.31906zM109.16625,131.39188c-0.77265,-1.21543 -2.36607,-1.60573 -3.61297,-0.88498c-1.2469,0.72075 -1.70399,2.29632 -1.03641,3.57248l2.6875,4.64937c0.77265,1.21543 2.36607,1.60573 3.61297,0.88498c1.2469,-0.72075 1.70399,-2.29632 1.03641,-3.57248zM67.75188,135.36938c-1.43191,-0.37551 -2.89787,0.47763 -3.27875,1.90813l-1.3975,5.16c-0.28786,0.939 -0.04058,1.96024 0.64494,2.66355c0.68552,0.70331 1.70009,0.97667 2.64616,0.71295c0.94606,-0.26371 1.67293,-1.02249 1.89578,-1.97901l1.3975,-5.18687c0.37551,-1.43191 -0.47763,-2.89787 -1.90812,-3.27875z" fill="#8d6c9f"></path><path d="M122.98,16.125c-1.99297,-1.19004 -4.52472,-0.96626 -6.27804,0.55492c-1.75332,1.52117 -2.33205,3.99603 -1.43508,6.13696c4.14399,9.76797 6.08028,20.33039 5.67063,30.93313c-1.48594,37.95837 -31.91663,68.38906 -69.875,69.875c-8.59488,0.32067 -17.17781,-0.89896 -25.34312,-3.60125c-2.19961,-0.74346 -4.62796,0.00952 -6.02108,1.86701c-1.39311,1.85748 -1.43604,4.39954 -0.10642,6.30299c14.55311,20.77986 38.35153,33.12573 63.72063,33.05625c1.57667,0 3.16229,-0.04479 4.75688,-0.13438c34.25166,-2.01904 63.15395,-26.20038 71.18579,-59.55817c8.03184,-33.35779 -6.69632,-68.0444 -36.27516,-85.43246zM155.66,89.1175c-2.42635,30.48564 -23.70584,56.17763 -53.20625,64.23907c-29.50041,8.06144 -60.88847,-3.23834 -78.48125,-28.25344c23.2659,7.68933 48.79344,3.98918 68.91861,-9.98956c20.12517,-13.97875 32.5045,-36.60835 33.42139,-61.09481c0.43695,-11.36659 -1.63683,-22.68978 -6.07375,-33.16375c23.93444,14.0657 37.70028,40.5947 35.42125,68.2625z" fill="#8d6c9f"></path><path d="M140.63688,68.71938c0.30319,1.22868 1.4225,2.07936 2.6875,2.0425h0.645c1.43902,-0.35719 2.31691,-1.81232 1.96187,-3.25187c-0.53614,-2.18409 -1.19107,-4.33729 -1.96187,-6.45c-0.51207,-1.39521 -2.05823,-2.11113 -3.45344,-1.59906c-1.39521,0.51207 -2.11113,2.05823 -1.59906,3.45344c0.67803,1.90243 1.25221,3.84028 1.72,5.805zM142.2225,79.765c0.44237,10.2969 -1.9366,20.51901 -6.88,29.5625c-0.74213,1.29873 -0.29092,2.95318 1.00781,3.69531c1.29873,0.74213 2.95318,0.29092 3.69531,-1.00781c5.39492,-9.86547 7.99663,-21.01566 7.525,-32.25c-0.05937,-1.48427 -1.31073,-2.63937 -2.795,-2.58c-1.48427,0.05937 -2.63937,1.31073 -2.58,2.795zM22.8975,52.72875l10.07813,5.375c1.80367,0.98648 3.28664,2.46946 4.27313,4.27313l5.375,10.07812c0.47332,0.85547 1.37388,1.38642 2.35156,1.38642c0.97768,0 1.87824,-0.53095 2.35156,-1.38642l5.375,-10.07812c0.98648,-1.80367 2.46946,-3.28664 4.27313,-4.27312l10.07812,-5.375c0.85547,-0.47332 1.38642,-1.37388 1.38642,-2.35156c0,-0.97768 -0.53095,-1.87824 -1.38642,-2.35156l-10.07812,-5.375c-1.80367,-0.98648 -3.28664,-2.46946 -4.27312,-4.27312l-5.375,-10.07812c-0.47332,-0.85547 -1.37388,-1.38642 -2.35156,-1.38642c-0.97768,0 -1.87824,0.53095 -2.35156,1.38642l-5.375,10.07813c-0.98648,1.80367 -2.46946,3.28664 -4.27312,4.27313l-10.07813,5.375c-0.85547,0.47332 -1.38642,1.37388 -1.38642,2.35156c0,0.97768 0.53095,1.87824 1.38642,2.35156zM35.55563,47.35375c2.7024,-1.48539 4.9222,-3.71452 6.39625,-6.42313l3.17125,-5.99312l3.25188,5.88562c1.48129,2.71232 3.71081,4.94184 6.42312,6.42312l5.75125,3.14438l-5.75125,3.14438c-2.7086,1.47405 -4.93773,3.69385 -6.42312,6.39625l-3.14438,5.75125l-3.27875,-5.75125c-1.47815,-2.69868 -3.69757,-4.9181 -6.39625,-6.39625l-5.75125,-3.14438zM71.2725,79.71125l6.18125,3.38625c0.93856,0.50673 1.71256,1.2714 2.23063,2.20375l3.38625,6.18125c0.47332,0.85547 1.37388,1.38642 2.35156,1.38642c0.97768,0 1.87824,-0.53095 2.35156,-1.38642l3.38625,-6.20812c0.5084,-0.93046 1.27329,-1.69535 2.20375,-2.20375l6.18125,-3.38625c0.85547,-0.47332 1.38642,-1.37388 1.38642,-2.35156c0,-0.97768 -0.53095,-1.87824 -1.38642,-2.35156l-6.18125,-3.38625c-0.92955,-0.50961 -1.69414,-1.2742 -2.20375,-2.20375l-3.38625,-6.18125c-0.47332,-0.85547 -1.37388,-1.38642 -2.35156,-1.38642c-0.97768,0 -1.87824,0.53095 -2.35156,1.38642l-3.38625,6.18125c-0.51081,0.92864 -1.27511,1.69294 -2.20375,2.20375l-6.18125,3.38625c-0.85547,0.47332 -1.38642,1.37388 -1.38642,2.35156c0,0.97768 0.53095,1.87824 1.38642,2.35156zM80.03375,76.325c1.83911,-1.0032 3.35055,-2.51464 4.35375,-4.35375l1.02125,-1.88125l1.02125,1.88125c1.0032,1.83911 2.51464,3.35055 4.35375,4.35375l1.88125,1.02125l-1.88125,1.02125c-1.83911,1.0032 -3.35055,2.51464 -4.35375,4.35375l-1.02125,1.88125l-1.02125,-1.88125c-1.00443,-1.8382 -2.51555,-3.34932 -4.35375,-4.35375l-1.88125,-1.02125z" fill="#8d6c9f"></path></g><path d="" fill="none" stroke="none" stroke-width="1" stroke-linejoin="miter"></path></g></g></svg>