<svg version="1.1" xmlns="http://www.w3.org/2000/svg" xmlns:xlink="http://www.w3.org/1999/xlink" viewBox="0 0 172 172"><g transform="translate(3.784,3.784) scale(0.956,0.956)"><g fill="none" fill-rule="nonzero" stroke="none" stroke-width="none" stroke-linecap="butt" stroke-linejoin="none" stroke-miterlimit="10" stroke-dasharray="" stroke-dashoffset="0" font-family="none" font-weight="none" font-size="none" text-anchor="none" style="mix-blend-mode: normal"><g id="Layer_1 1" stroke="#cccccc" stroke-width="8" stroke-linejoin="round"><path d="M90.56875,18.67813l12.49687,-7.39063c4.70313,-2.6875 10.75,-0.80625 12.9,4.16563l5.77812,13.30312c1.34375,2.95625 4.16562,5.10625 7.39063,5.375l14.5125,1.34375c5.375,0.5375 9.1375,5.64375 7.92812,11.01875l-3.09062,14.24375c-0.67187,3.225 0.40312,6.58437 2.82188,8.73438l10.88437,9.675c4.03125,3.62813 4.03125,9.94375 0,13.57188l-10.88437,9.675c-2.41875,2.15 -3.49375,5.50938 -2.82188,8.73438l3.09062,14.24375c1.20938,5.24063 -2.55312,10.48125 -7.92812,11.01875l-14.5125,1.34375c-3.225,0.26875 -6.04688,2.41875 -7.39063,5.375l-5.77812,13.30312c-2.15,4.97188 -8.19688,6.9875 -12.9,4.16563l-12.49687,-7.39062c-2.82187,-1.6125 -6.31563,-1.6125 -9.1375,0l-12.49687,7.39063c-4.70312,2.6875 -10.75,0.80625 -12.9,-4.16563l-5.77812,-13.30312c-1.34375,-2.95625 -4.16562,-5.10625 -7.39062,-5.375l-14.5125,-1.34375c-5.375,-0.5375 -9.1375,-5.64375 -7.92813,-11.01875l3.09062,-14.24375c0.67188,-3.225 -0.40312,-6.58437 -2.82187,-8.73437l-11.01875,-9.675c-4.03125,-3.62812 -4.03125,-9.94375 0,-13.57188l10.88437,-9.675c2.41875,-2.15 3.49375,-5.50938 2.82188,-8.73437l-3.09062,-14.24375c-1.20938,-5.24062 2.55312,-10.48125 7.92812,-11.01875l14.5125,-1.34375c3.225,-0.26875 6.04687,-2.41875 7.39062,-5.375l5.77812,-13.30313c2.15,-4.97188 8.19688,-6.9875 12.9,-4.16563l12.49688,7.39063c2.95625,1.74688 6.45,1.74688 9.27188,0z" fill="#fff0b3"></path><path d="M20.29062,50.65938c-1.88125,0 -3.49375,-1.34375 -3.89687,-3.225c-0.80625,-3.62813 0,-7.525 2.15,-10.48125c2.15,-3.09063 5.64375,-4.97188 9.27188,-5.375l6.71875,-0.67187c2.15,-0.26875 4.16563,1.34375 4.43438,3.62813c0.26875,2.15 -1.34375,4.16562 -3.62812,4.43438l-6.71875,0.67188c-1.47812,0.13437 -2.6875,0.80625 -3.62812,2.01563c-0.80625,1.20937 -1.075,2.6875 -0.80625,4.03125c0.5375,2.15 -0.94063,4.3 -3.09062,4.8375c-0.26875,0.13438 -0.5375,0.13438 -0.80625,0.13438z" fill="#f2b630"></path><path d="M107.76875,157.89063c-0.94062,0 -1.74687,-0.26875 -2.55312,-0.67187l-12.63125,-7.39062c-4.03125,-2.41875 -9.27188,-2.41875 -13.30313,0c-1.88125,1.075 -4.43437,0.5375 -5.50937,-1.47813c-1.075,-1.88125 -0.5375,-4.43437 1.47812,-5.50937c6.45,-3.7625 14.91563,-3.7625 21.5,0l9.54062,5.64375l4.43438,-10.2125c3.09062,-6.9875 9.675,-11.825 17.33437,-12.63125l14.5125,-1.34375c2.15,-0.26875 4.16562,1.34375 4.43437,3.62813c0.26875,2.15 -1.34375,4.16562 -3.62813,4.43438l-14.5125,1.34375c-4.70312,0.40312 -8.86875,3.49375 -10.75,7.79375l-5.77813,13.30312c-0.80625,1.88125 -2.6875,3.09062 -4.56875,3.09062z" fill="#f2b630"></path><path d="M146.06563,100.37813c-1.075,0 -2.28438,-0.40312 -2.95625,-1.34375c-1.47813,-1.6125 -1.34375,-4.16562 0.40312,-5.64375l8.33125,-7.39062l-8.33125,-7.39062c-5.77812,-5.10625 -8.33125,-12.9 -6.58437,-20.425l2.82187,-12.49687c-0.40312,-0.67187 -0.67187,-1.6125 -0.5375,-2.41875c0.26875,-2.15 2.15,-3.89688 4.43437,-3.62812c1.47813,0.13437 2.6875,0.80625 3.62813,2.01563c0.80625,1.20937 1.20937,2.55313 0.80625,4.03125l-3.09062,14.24375c-1.075,4.56875 0.5375,9.40625 4.03125,12.63125l10.88438,9.675c1.075,0.94063 1.74687,2.28438 1.74687,3.7625c0,1.47812 -0.5375,2.82187 -1.74687,3.7625l-10.88438,9.675c-1.075,0.67188 -2.01562,0.94062 -2.95625,0.94062z" fill="#f2b630"></path><path d="M40.3125,86c0,-25.23251 20.45499,-45.6875 45.6875,-45.6875c25.23251,0 45.6875,20.45499 45.6875,45.6875c0,25.23251 -20.45499,45.6875 -45.6875,45.6875c-25.23251,0 -45.6875,-20.45499 -45.6875,-45.6875z" fill="#ffffff"></path><path d="M79.81875,58.31875c-1.88125,0 -3.62812,-1.34375 -3.89687,-3.225c-0.40313,-2.15 0.94062,-4.3 3.225,-4.70312c2.28438,-0.40312 4.56875,-0.67187 6.9875,-0.67187c2.28438,0 4.03125,1.74687 4.03125,4.03125c0,2.28438 -1.74687,4.03125 -4.03125,4.03125c-1.74687,0 -3.62812,0.13437 -5.375,0.5375c-0.40312,0 -0.67187,0 -0.94062,0z" fill="#f2b630"></path><path d="M63.15625,112.875c-1.075,0 -2.01562,-0.40313 -2.82187,-1.20938c-6.85313,-6.85312 -10.61563,-15.99062 -10.61563,-25.66562c0,-7.12188 2.01563,-14.10937 6.04688,-20.02187c1.20938,-1.88125 3.7625,-2.41875 5.64375,-1.075c1.88125,1.20937 2.41875,3.7625 1.075,5.64375c-3.09062,4.56875 -4.70312,9.94375 -4.70312,15.45312c0,7.525 2.95625,14.64688 8.33125,19.8875c1.6125,1.6125 1.6125,4.16562 0,5.64375c-0.80625,0.94062 -1.88125,1.34375 -2.95625,1.34375z" fill="#f2b630"></path><path d="M56.03438,160.57813c-1.6125,0 -3.09062,-0.94063 -3.7625,-2.41875l-5.77812,-13.30313c-0.67187,-1.6125 -2.28438,-2.82187 -4.16563,-2.95625l-14.5125,-1.34375c-3.7625,-0.40313 -7.12187,-2.28438 -9.27188,-5.375c-2.15,-3.09063 -2.95625,-6.85313 -2.15,-10.48125l3.09063,-14.24375c0.40312,-1.74687 -0.26875,-3.62812 -1.6125,-4.8375l-10.88437,-9.675c-2.82188,-2.41875 -4.43437,-6.04687 -4.43437,-9.80938c0,-3.7625 1.6125,-7.25625 4.43438,-9.80937l10.88437,-9.675c1.34375,-1.20937 2.01563,-3.09062 1.6125,-4.8375c-0.5375,-2.15 0.94062,-4.3 3.09062,-4.8375c2.15,-0.5375 4.3,0.94063 4.8375,3.09062c1.075,4.56875 -0.5375,9.40625 -4.03125,12.63125l-10.88437,9.675c-1.075,0.94063 -1.74688,2.28438 -1.74688,3.7625c0,1.47813 0.5375,2.82187 1.74688,3.7625l10.88437,9.675c3.49375,3.09063 5.10625,7.92813 4.03125,12.63125l-3.225,14.10937c-0.26875,1.47812 0,2.82188 0.80625,4.03125c0.80625,1.20937 2.15,1.88125 3.62812,2.01563l14.5125,1.34375c4.70313,0.40312 8.86875,3.49375 10.75,7.79375l5.77813,13.30313c0.94062,2.01563 0,4.43437 -2.15,5.24062c-0.40312,0.40312 -0.94062,0.5375 -1.47812,0.5375z" fill="#444b54"></path><path d="M107.76875,165.95313c-2.28437,0 -4.56875,-0.67187 -6.58437,-1.74687l-12.49688,-7.39062c-1.6125,-0.94063 -3.49375,-0.94063 -5.10625,0l-12.49687,7.39063c-1.88125,1.075 -4.43438,0.5375 -5.50938,-1.47813c-1.075,-1.88125 -0.5375,-4.43437 1.47813,-5.50937l12.49687,-7.39062c4.03125,-2.41875 9.1375,-2.41875 13.30313,0l12.49688,7.39063c1.20938,0.67188 2.6875,0.94062 4.03125,0.40312c1.34375,-0.40312 2.41875,-1.47813 3.09062,-2.82188l5.77813,-13.30312c0.94062,-2.01562 3.225,-2.95625 5.24063,-2.15c2.01563,0.94063 2.95625,3.225 2.15,5.24063l-5.77813,13.30312c-1.47812,3.49375 -4.43437,6.04688 -7.92812,7.25625c-1.47813,0.5375 -2.82188,0.80625 -4.16563,0.80625z" fill="#444b54"></path><path d="M143.78125,140.42188c-2.01562,0 -3.7625,-1.6125 -4.03125,-3.62813c-0.26875,-2.15 1.34375,-4.16562 3.62813,-4.43437c1.47812,-0.13438 2.6875,-0.80625 3.62812,-2.01562c0.80625,-1.20937 1.20938,-2.55313 0.80625,-4.03125l-3.09062,-14.24375c-1.075,-4.56875 0.5375,-9.40625 4.03125,-12.63125l10.88437,-9.675c1.075,-0.94063 1.74688,-2.28438 1.74688,-3.7625c0,-1.47812 -0.5375,-2.82188 -1.74688,-3.7625l-10.88437,-9.675c-3.49375,-3.09063 -5.10625,-7.92812 -4.03125,-12.63125l3.09062,-14.24375c0.26875,-1.47812 0,-2.82187 -0.80625,-4.03125c-0.80625,-1.20938 -2.15,-1.88125 -3.62812,-2.01562c-2.15,-0.26875 -3.89688,-2.15 -3.62813,-4.43438c0.26875,-2.15 2.15,-3.89687 4.43437,-3.62812c3.7625,0.40312 7.12188,2.28437 9.27188,5.375c2.15,3.09063 2.95625,6.85312 2.15,10.48125l-3.09062,14.24375c-0.40312,1.74687 0.26875,3.62813 1.6125,4.8375l10.88437,9.675c2.82188,2.41875 4.43438,6.04688 4.43438,9.80938c0,3.7625 -1.6125,7.25625 -4.43438,9.80938l-10.88437,9.675c-1.34375,1.20938 -2.01562,3.09063 -1.6125,4.8375l3.09062,14.24375c0.80625,3.62813 0,7.525 -2.15,10.48125c-2.15,3.09063 -5.64375,4.97188 -9.27188,5.375c-0.13437,0 -0.26875,0 -0.40312,0z" fill="#444b54"></path><path d="M121.87813,32.92188c-1.6125,0 -3.09062,-0.94063 -3.7625,-2.41875l-5.77813,-13.30313c-0.5375,-1.34375 -1.6125,-2.28437 -3.09062,-2.82188c-1.34375,-0.40313 -2.82187,-0.26875 -4.03125,0.40313l-12.49688,7.39063c-4.03125,2.41875 -9.1375,2.41875 -13.30312,0l-12.63125,-7.39062c-1.20937,-0.67187 -2.6875,-0.94062 -4.03125,-0.40313c-1.34375,0.40313 -2.41875,1.47813 -3.09062,2.82188c-0.94063,2.01563 -3.225,2.95625 -5.24063,2.15c-2.01562,-0.94062 -2.95625,-3.225 -2.15,-5.24062c1.47812,-3.62812 4.43437,-6.31562 7.92812,-7.39062c3.49375,-1.20938 7.39063,-0.67187 10.61563,1.20938l12.49688,7.39062c1.6125,0.94062 3.49375,0.94062 5.10625,0l12.49687,-7.39062c3.225,-1.88125 7.12188,-2.28438 10.61563,-1.20938c3.49375,1.075 6.45,3.7625 7.92813,7.25625l5.77812,13.30313c0.94063,2.01563 0,4.43438 -2.15,5.24062c-0.13438,0.26875 -0.67188,0.40313 -1.20938,0.40313z" fill="#444b54"></path><path d="M166.625,170.65625c-1.075,0 -2.01562,-0.40312 -2.82188,-1.20937l-14.24375,-14.10937c-1.6125,-1.6125 -1.6125,-4.16563 0,-5.64375c1.6125,-1.47813 4.16562,-1.6125 5.64375,0l14.24375,14.10938c1.6125,1.6125 1.6125,4.16562 0,5.64375c-0.80625,0.80625 -1.74688,1.20937 -2.82188,1.20937z" fill="#444b54"></path><path d="M155.875,20.15625c-1.075,0 -2.01562,-0.40312 -2.82188,-1.20938c-1.6125,-1.6125 -1.6125,-4.16562 0,-5.64375l10.75,-10.75c1.6125,-1.6125 4.16563,-1.6125 5.64375,0c1.6125,1.6125 1.6125,4.16562 0,5.64375l-10.75,10.75c-0.80625,0.80625 -1.74688,1.20938 -2.82188,1.20938z" fill="#444b54"></path><path d="M17.87188,21.90313c-1.075,0 -2.01562,-0.40312 -2.82187,-1.20937l-12.49687,-12.49687c-1.6125,-1.6125 -1.6125,-4.16563 0,-5.64375c1.47813,-1.6125 4.16563,-1.6125 5.64375,0l12.49688,12.49688c1.6125,1.6125 1.6125,4.16562 0,5.64375c-0.67187,0.80625 -1.74688,1.20937 -2.82188,1.20937z" fill="#f2b630"></path><path d="M28.21875,5.375c0,-2.2264 1.80485,-4.03125 4.03125,-4.03125c2.2264,0 4.03125,1.80485 4.03125,4.03125c0,2.2264 -1.80485,4.03125 -4.03125,4.03125c-2.2264,0 -4.03125,-1.80485 -4.03125,-4.03125z" fill="#f2b630"></path></g><path d="M0,172v-172h172v172z" fill="none" stroke="none" stroke-width="1" stroke-linejoin="miter"></path><g id="Layer_1" stroke="none" stroke-width="1" stroke-linejoin="miter"><path d="M90.56875,18.67813l12.49687,-7.39063c4.70313,-2.6875 10.75,-0.80625 12.9,4.16563l5.77812,13.30312c1.34375,2.95625 4.16562,5.10625 7.39063,5.375l14.5125,1.34375c5.375,0.5375 9.1375,5.64375 7.92812,11.01875l-3.09062,14.24375c-0.67187,3.225 0.40312,6.58437 2.82188,8.73438l10.88437,9.675c4.03125,3.62813 4.03125,9.94375 0,13.57188l-10.88437,9.675c-2.41875,2.15 -3.49375,5.50938 -2.82188,8.73438l3.09062,14.24375c1.20938,5.24063 -2.55312,10.48125 -7.92812,11.01875l-14.5125,1.34375c-3.225,0.26875 -6.04688,2.41875 -7.39063,5.375l-5.77812,13.30312c-2.15,4.97188 -8.19688,6.9875 -12.9,4.16563l-12.49687,-7.39062c-2.82187,-1.6125 -6.31563,-1.6125 -9.1375,0l-12.49687,7.39063c-4.70312,2.6875 -10.75,0.80625 -12.9,-4.16563l-5.77812,-13.30312c-1.34375,-2.95625 -4.16562,-5.10625 -7.39062,-5.375l-14.5125,-1.34375c-5.375,-0.5375 -9.1375,-5.64375 -7.92813,-11.01875l3.09062,-14.24375c0.67188,-3.225 -0.40312,-6.58437 -2.82187,-8.73437l-11.01875,-9.675c-4.03125,-3.62812 -4.03125,-9.94375 0,-13.57188l10.88437,-9.675c2.41875,-2.15 3.49375,-5.50938 2.82188,-8.73437l-3.09062,-14.24375c-1.20938,-5.24062 2.55312,-10.48125 7.92812,-11.01875l14.5125,-1.34375c3.225,-0.26875 6.04687,-2.41875 7.39062,-5.375l5.77812,-13.30313c2.15,-4.97188 8.19688,-6.9875 12.9,-4.16563l12.49688,7.39063c2.95625,1.74688 6.45,1.74688 9.27188,0z" fill="#fff0b3"></path><path d="M20.29062,50.65938c-1.88125,0 -3.49375,-1.34375 -3.89687,-3.225c-0.80625,-3.62813 0,-7.525 2.15,-10.48125c2.15,-3.09063 5.64375,-4.97188 9.27188,-5.375l6.71875,-0.67187c2.15,-0.26875 4.16563,1.34375 4.43438,3.62813c0.26875,2.15 -1.34375,4.16562 -3.62812,4.43438l-6.71875,0.67188c-1.47812,0.13437 -2.6875,0.80625 -3.62812,2.01563c-0.80625,1.20937 -1.075,2.6875 -0.80625,4.03125c0.5375,2.15 -0.94063,4.3 -3.09062,4.8375c-0.26875,0.13438 -0.5375,0.13438 -0.80625,0.13438z" fill="#f2b630"></path><path d="M107.76875,157.89063c-0.94062,0 -1.74687,-0.26875 -2.55312,-0.67187l-12.63125,-7.39062c-4.03125,-2.41875 -9.27188,-2.41875 -13.30313,0c-1.88125,1.075 -4.43437,0.5375 -5.50937,-1.47813c-1.075,-1.88125 -0.5375,-4.43437 1.47812,-5.50937c6.45,-3.7625 14.91563,-3.7625 21.5,0l9.54062,5.64375l4.43438,-10.2125c3.09062,-6.9875 9.675,-11.825 17.33437,-12.63125l14.5125,-1.34375c2.15,-0.26875 4.16562,1.34375 4.43437,3.62813c0.26875,2.15 -1.34375,4.16562 -3.62813,4.43438l-14.5125,1.34375c-4.70312,0.40312 -8.86875,3.49375 -10.75,7.79375l-5.77813,13.30312c-0.80625,1.88125 -2.6875,3.09062 -4.56875,3.09062z" fill="#f2b630"></path><path d="M146.06563,100.37813c-1.075,0 -2.28438,-0.40312 -2.95625,-1.34375c-1.47813,-1.6125 -1.34375,-4.16562 0.40312,-5.64375l8.33125,-7.39062l-8.33125,-7.39062c-5.77812,-5.10625 -8.33125,-12.9 -6.58437,-20.425l2.82187,-12.49687c-0.40312,-0.67187 -0.67187,-1.6125 -0.5375,-2.41875c0.26875,-2.15 2.15,-3.89688 4.43437,-3.62812c1.47813,0.13437 2.6875,0.80625 3.62813,2.01563c0.80625,1.20937 1.20937,2.55313 0.80625,4.03125l-3.09062,14.24375c-1.075,4.56875 0.5375,9.40625 4.03125,12.63125l10.88438,9.675c1.075,0.94063 1.74687,2.28438 1.74687,3.7625c0,1.47812 -0.5375,2.82187 -1.74687,3.7625l-10.88438,9.675c-1.075,0.67188 -2.01562,0.94062 -2.95625,0.94062zM154.2625,83.71563v0zM142.57188,47.70313v0z" fill="#f2b630"></path><circle cx="64" cy="64" transform="scale(1.34375,1.34375)" r="34" fill="#ffffff"></circle><path d="M79.81875,58.31875c-1.88125,0 -3.62812,-1.34375 -3.89687,-3.225c-0.40313,-2.15 0.94062,-4.3 3.225,-4.70312c2.28438,-0.40312 4.56875,-0.67187 6.9875,-0.67187c2.28438,0 4.03125,1.74687 4.03125,4.03125c0,2.28438 -1.74687,4.03125 -4.03125,4.03125c-1.74687,0 -3.62812,0.13437 -5.375,0.5375c-0.40312,0 -0.67187,0 -0.94062,0z" fill="#f2b630"></path><path d="M63.15625,112.875c-1.075,0 -2.01562,-0.40313 -2.82187,-1.20938c-6.85313,-6.85312 -10.61563,-15.99062 -10.61563,-25.66562c0,-7.12188 2.01563,-14.10937 6.04688,-20.02187c1.20938,-1.88125 3.7625,-2.41875 5.64375,-1.075c1.88125,1.20937 2.41875,3.7625 1.075,5.64375c-3.09062,4.56875 -4.70312,9.94375 -4.70312,15.45312c0,7.525 2.95625,14.64688 8.33125,19.8875c1.6125,1.6125 1.6125,4.16562 0,5.64375c-0.80625,0.94062 -1.88125,1.34375 -2.95625,1.34375z" fill="#f2b630"></path><path d="M56.03438,160.57813c-1.6125,0 -3.09062,-0.94063 -3.7625,-2.41875l-5.77812,-13.30313c-0.67187,-1.6125 -2.28438,-2.82187 -4.16563,-2.95625l-14.5125,-1.34375c-3.7625,-0.40313 -7.12187,-2.28438 -9.27188,-5.375c-2.15,-3.09063 -2.95625,-6.85313 -2.15,-10.48125l3.09063,-14.24375c0.40312,-1.74687 -0.26875,-3.62812 -1.6125,-4.8375l-10.88437,-9.675c-2.82188,-2.41875 -4.43437,-6.04687 -4.43437,-9.80938c0,-3.7625 1.6125,-7.25625 4.43438,-9.80937l10.88437,-9.675c1.34375,-1.20937 2.01563,-3.09062 1.6125,-4.8375c-0.5375,-2.15 0.94062,-4.3 3.09062,-4.8375c2.15,-0.5375 4.3,0.94063 4.8375,3.09062c1.075,4.56875 -0.5375,9.40625 -4.03125,12.63125l-10.88437,9.675c-1.075,0.94063 -1.74688,2.28438 -1.74688,3.7625c0,1.47813 0.5375,2.82187 1.74688,3.7625l10.88437,9.675c3.49375,3.09063 5.10625,7.92813 4.03125,12.63125l-3.225,14.10937c-0.26875,1.47812 0,2.82188 0.80625,4.03125c0.80625,1.20937 2.15,1.88125 3.62812,2.01563l14.5125,1.34375c4.70313,0.40312 8.86875,3.49375 10.75,7.79375l5.77813,13.30313c0.94062,2.01563 0,4.43437 -2.15,5.24062c-0.40312,0.40312 -0.94062,0.5375 -1.47812,0.5375z" fill="#444b54"></path><path d="M107.76875,165.95313c-2.28437,0 -4.56875,-0.67187 -6.58437,-1.74687l-12.49688,-7.39062c-1.6125,-0.94063 -3.49375,-0.94063 -5.10625,0l-12.49687,7.39063c-1.88125,1.075 -4.43438,0.5375 -5.50938,-1.47813c-1.075,-1.88125 -0.5375,-4.43437 1.47813,-5.50937l12.49687,-7.39062c4.03125,-2.41875 9.1375,-2.41875 13.30313,0l12.49688,7.39063c1.20938,0.67188 2.6875,0.94062 4.03125,0.40312c1.34375,-0.40312 2.41875,-1.47813 3.09062,-2.82188l5.77813,-13.30312c0.94062,-2.01562 3.225,-2.95625 5.24063,-2.15c2.01563,0.94063 2.95625,3.225 2.15,5.24063l-5.77813,13.30312c-1.47812,3.49375 -4.43437,6.04688 -7.92812,7.25625c-1.47813,0.5375 -2.82188,0.80625 -4.16563,0.80625z" fill="#444b54"></path><path d="M143.78125,140.42188c-2.01562,0 -3.7625,-1.6125 -4.03125,-3.62813c-0.26875,-2.15 1.34375,-4.16562 3.62813,-4.43437c1.47812,-0.13438 2.6875,-0.80625 3.62812,-2.01562c0.80625,-1.20937 1.20938,-2.55313 0.80625,-4.03125l-3.09062,-14.24375c-1.075,-4.56875 0.5375,-9.40625 4.03125,-12.63125l10.88437,-9.675c1.075,-0.94063 1.74688,-2.28438 1.74688,-3.7625c0,-1.47812 -0.5375,-2.82188 -1.74688,-3.7625l-10.88437,-9.675c-3.49375,-3.09063 -5.10625,-7.92812 -4.03125,-12.63125l3.09062,-14.24375c0.26875,-1.47812 0,-2.82187 -0.80625,-4.03125c-0.80625,-1.20938 -2.15,-1.88125 -3.62812,-2.01562c-2.15,-0.26875 -3.89688,-2.15 -3.62813,-4.43438c0.26875,-2.15 2.15,-3.89687 4.43437,-3.62812c3.7625,0.40312 7.12188,2.28437 9.27188,5.375c2.15,3.09063 2.95625,6.85312 2.15,10.48125l-3.09062,14.24375c-0.40312,1.74687 0.26875,3.62813 1.6125,4.8375l10.88437,9.675c2.82188,2.41875 4.43438,6.04688 4.43438,9.80938c0,3.7625 -1.6125,7.25625 -4.43438,9.80938l-10.88437,9.675c-1.34375,1.20938 -2.01562,3.09063 -1.6125,4.8375l3.09062,14.24375c0.80625,3.62813 0,7.525 -2.15,10.48125c-2.15,3.09063 -5.64375,4.97188 -9.27188,5.375c-0.13437,0 -0.26875,0 -0.40312,0z" fill="#444b54"></path><path d="M121.87813,32.92188c-1.6125,0 -3.09062,-0.94063 -3.7625,-2.41875l-5.77813,-13.30313c-0.5375,-1.34375 -1.6125,-2.28437 -3.09062,-2.82188c-1.34375,-0.40313 -2.82187,-0.26875 -4.03125,0.40313l-12.49688,7.39063c-4.03125,2.41875 -9.1375,2.41875 -13.30312,0l-12.63125,-7.39062c-1.20937,-0.67187 -2.6875,-0.94062 -4.03125,-0.40313c-1.34375,0.40313 -2.41875,1.47813 -3.09062,2.82188c-0.94063,2.01563 -3.225,2.95625 -5.24063,2.15c-2.01562,-0.94062 -2.95625,-3.225 -2.15,-5.24062c1.47812,-3.62812 4.43437,-6.31562 7.92812,-7.39062c3.49375,-1.20938 7.39063,-0.67187 10.61563,1.20938l12.49688,7.39062c1.6125,0.94062 3.49375,0.94062 5.10625,0l12.49687,-7.39062c3.225,-1.88125 7.12188,-2.28438 10.61563,-1.20938c3.49375,1.075 6.45,3.7625 7.92813,7.25625l5.77812,13.30313c0.94063,2.01563 0,4.43438 -2.15,5.24062c-0.13438,0.26875 -0.67188,0.40313 -1.20938,0.40313z" fill="#444b54"></path><path d="M166.625,170.65625c-1.075,0 -2.01562,-0.40312 -2.82188,-1.20937l-14.24375,-14.10937c-1.6125,-1.6125 -1.6125,-4.16563 0,-5.64375c1.6125,-1.47813 4.16562,-1.6125 5.64375,0l14.24375,14.10938c1.6125,1.6125 1.6125,4.16562 0,5.64375c-0.80625,0.80625 -1.74688,1.20937 -2.82188,1.20937z" fill="#444b54"></path><path d="M155.875,20.15625c-1.075,0 -2.01562,-0.40312 -2.82188,-1.20938c-1.6125,-1.6125 -1.6125,-4.16562 0,-5.64375l10.75,-10.75c1.6125,-1.6125 4.16563,-1.6125 5.64375,0c1.6125,1.6125 1.6125,4.16562 0,5.64375l-10.75,10.75c-0.80625,0.80625 -1.74688,1.20938 -2.82188,1.20938z" fill="#444b54"></path><path d="M17.87188,21.90313c-1.075,0 -2.01562,-0.40312 -2.82187,-1.20937l-12.49687,-12.49687c-1.6125,-1.6125 -1.6125,-4.16563 0,-5.64375c1.47813,-1.6125 4.16563,-1.6125 5.64375,0l12.49688,12.49688c1.6125,1.6125 1.6125,4.16562 0,5.64375c-0.67187,0.80625 -1.74688,1.20937 -2.82188,1.20937z" fill="#f2b630"></path><circle cx="24" cy="4" transform="scale(1.34375,1.34375)" r="3" fill="#f2b630"></circle></g><path d="" fill="none" stroke="none" stroke-width="1" stroke-linejoin="miter"></path></g></g></svg>